<?xml version="1.0" standalone="no"?>
<!DOCTYPE svg PUBLIC "-//W3C//DTD SVG 20010904//EN"
 "http://www.w3.org/TR/2001/REC-SVG-20010904/DTD/svg10.dtd">
<svg version="1.0" xmlns="http://www.w3.org/2000/svg"
 width="626.000000pt" height="626.000000pt" viewBox="0 0 626.000000 626.000000"
 preserveAspectRatio="xMidYMid meet">

<g transform="translate(0.000000,626.000000) scale(0.100000,-0.100000)"
fill="#000000" stroke="none">
<path d="M3820 5333 c-64 -24 -283 -258 -443 -473 -272 -365 -535 -889 -703
-1398 -54 -162 -114 -374 -114 -400 0 -15 17 -25 75 -47 41 -14 78 -24 83 -21
5 3 12 25 16 48 6 38 26 113 43 158 3 8 7 22 8 30 4 33 70 232 117 355 99 258
215 500 337 703 90 148 201 312 213 312 4 0 8 5 8 11 0 29 171 229 358 419
150 153 152 155 152 193 0 78 -80 136 -150 110z"/>
<path d="M2224 3077 c4 -17 39 -118 78 -225 l72 -193 45 -20 c64 -30 221 -60
316 -62 l80 -2 125 101 c162 132 185 153 174 164 -9 9 -205 56 -275 66 -36 5
-37 4 -53 -38 -9 -24 -23 -65 -31 -93 l-13 -50 -1 102 -1 102 -77 29 c-43 16
-125 46 -183 67 -58 21 -127 46 -154 57 -27 11 -62 22 -79 24 -28 3 -29 2 -23
-29z"/>
<path d="M2301 2513 c-34 -37 -61 -71 -61 -74 0 -4 -15 -23 -34 -44 -19 -20
-62 -82 -96 -138 -35 -56 -70 -113 -80 -127 -9 -14 -21 -37 -25 -50 -4 -14
-27 -71 -51 -126 -47 -110 -86 -235 -104 -335 -19 -100 -17 -457 2 -474 7 -7
205 -87 226 -92 27 -6 27 -8 6 150 -30 223 -4 408 77 567 60 118 85 137 34 27
-25 -53 -52 -125 -60 -160 -22 -95 -20 -295 6 -409 35 -161 48 -211 57 -220
10 -10 171 -44 313 -64 219 -32 599 -19 599 21 0 7 -18 46 -39 87 -43 78 -84
178 -78 185 3 2 23 -27 46 -64 57 -94 142 -200 182 -229 32 -22 38 -23 99 -14
103 17 235 58 308 96 96 51 101 57 66 85 -74 59 -278 274 -345 364 -92 122
-159 221 -159 234 0 5 -4 11 -9 13 -32 11 -269 468 -345 665 -26 67 -54 124
-62 127 -8 3 -56 11 -107 17 -51 6 -132 19 -182 30 -49 10 -97 19 -106 19 -10
0 -45 -30 -78 -67z"/>
<path d="M4149 2310 c-6 -34 -20 -72 -31 -85 -19 -24 -100 -55 -145 -55 -44 0
-23 -19 35 -30 31 -7 69 -18 84 -26 27 -14 51 -66 63 -138 8 -49 18 -37 35 38
16 78 49 112 116 122 27 4 58 10 69 14 24 10 15 14 -67 30 -78 15 -102 40
-118 123 -7 37 -16 67 -21 67 -4 0 -13 -27 -20 -60z"/>
<path d="M1918 2028 c-85 -103 -178 -270 -218 -388 -21 -63 -58 -242 -54 -267
1 -7 2 -19 3 -26 0 -7 31 -40 67 -72 79 -70 84 -67 84 60 0 127 16 253 45 373
27 111 112 342 126 342 5 0 9 5 9 10 0 23 -30 7 -62 -32z"/>
<path d="M3741 2002 c-24 -139 -33 -171 -61 -215 -18 -27 -44 -50 -67 -60 -44
-20 -170 -47 -216 -47 -35 0 -65 -14 -50 -23 5 -3 34 -9 64 -12 151 -18 218
-42 262 -95 30 -35 43 -77 63 -199 7 -46 16 -86 18 -89 8 -7 26 46 26 76 0 46
29 153 52 194 12 21 36 47 53 58 38 23 129 46 218 55 112 12 99 24 -48 45 -93
13 -136 26 -175 53 -56 38 -75 88 -106 284 -8 55 -22 46 -33 -25z"/>
<path d="M4414 1508 c-9 -53 -39 -84 -92 -93 -23 -4 -42 -10 -42 -15 0 -4 23
-13 51 -20 56 -14 73 -33 84 -95 6 -37 8 -38 21 -20 8 10 14 27 14 37 0 37 30
66 81 78 27 7 47 15 44 20 -2 4 -25 13 -50 19 -50 12 -70 36 -80 94 -9 49 -23
47 -31 -5z"/>
</g>
</svg>
