<!DOCTYPE svg PUBLIC "-//W3C//DTD SVG 1.1//EN" "http://www.w3.org/Graphics/SVG/1.1/DTD/svg11.dtd">
<!-- Uploaded to: SVG Repo, www.svgrepo.com, Transformed by: SVG Repo Mixer Tools -->
<svg version="1.1" id="Layer_1" xmlns="http://www.w3.org/2000/svg" xmlns:xlink="http://www.w3.org/1999/xlink" viewBox="0 0 512 512" xml:space="preserve" width="800px" height="800px" fill="#3F1651" stroke="#3F1651">
<g id="SVGRepo_bgCarrier" stroke-width="0"/>
<g id="SVGRepo_tracerCarrier" stroke-linecap="round" stroke-linejoin="round"/>
<g id="SVGRepo_iconCarrier"> <rect x="256" y="180.547" style="fill:#3F1651;" width="64.674" height="43.116"/> <rect x="288.337" y="180.547" style="fill:#3F1651;" width="32.337" height="43.116"/> <path style="fill:#EDEDED;" d="M374.568,105.095H220.032c-37.309,0-71.312,21.396-87.457,55.031L29.642,374.568v10.779h409.6 V169.768C439.242,134.05,410.287,105.095,374.568,105.095z M180.547,180.547c0-17.859,14.477-32.337,32.337-32.337h150.905 c17.86,0,32.337,14.478,32.337,32.337l0,0c0,17.859-14.477,32.337-32.337,32.337H212.884 C195.025,212.884,180.547,198.406,180.547,180.547L180.547,180.547z"/> <g> <path style="fill:#D8D8DA;" d="M212.884,148.211h-43.116c-17.86,0-32.337,14.478-32.337,32.337l0,0 c0,17.859,14.477,32.337,32.337,32.337h43.116c-17.86,0-32.337-14.478-32.337-32.337l0,0 C180.547,162.689,195.025,148.211,212.884,148.211z"/> <path style="fill:#D8D8DA;" d="M374.568,105.095h-43.116c35.718,0,64.674,28.955,64.674,64.674v10.779l0,0v204.8h43.116V169.768 C439.242,134.05,410.287,105.095,374.568,105.095z"/> <path style="fill:#D8D8DA;" d="M444.632,374.568H24.253c-8.893,0-16.168,7.276-16.168,16.168l0,0 c0,8.893,7.276,16.168,16.168,16.168h420.379c8.893,0,16.168-7.276,16.168-16.168l0,0 C460.8,381.844,453.524,374.568,444.632,374.568z"/> </g> <path style="fill:#C5C5CA;" d="M444.632,374.568h-53.895c8.893,0,16.168,7.276,16.168,16.168c0,8.893-7.276,16.168-16.168,16.168 h53.895c8.893,0,16.168-7.276,16.168-16.168C460.8,381.844,453.524,374.568,444.632,374.568z"/> <path style="fill:#3F1651;" d="M60.685,309.895h238.43c17.785,0,32.337-14.552,32.337-32.337l0,0 c0-17.785-14.552-32.337-32.337-32.337H91.729L60.685,309.895z"/> <circle style="fill:#3F1651;" cx="384.269" cy="293.726" r="16.168"/> <g> <path style="fill:#2E2D31;" d="M404.211,180.547c0-22.289-18.132-40.421-40.421-40.421H212.884 c-22.289,0-40.421,18.132-40.421,40.421s18.132,40.421,40.421,40.421h150.905C386.078,220.968,404.211,202.836,404.211,180.547z M264.084,204.8v-16.168h48.505V204.8H264.084z M363.789,204.8h-35.032v-24.253c0-4.465-3.618-8.084-8.084-8.084H256 c-4.465,0-8.084,3.62-8.084,8.084V204.8h-35.032c-13.373,0-24.253-10.879-24.253-24.253c0-13.373,10.879-24.253,24.253-24.253 h150.905c13.372,0,24.253,10.879,24.253,24.253C388.042,193.921,377.162,204.8,363.789,204.8z"/> <path style="fill:#2E2D31;" d="M384.269,317.979c13.372,0,24.253-10.879,24.253-24.253c0-13.373-10.88-24.253-24.253-24.253 c-13.372,0-24.253,10.879-24.253,24.253C360.017,307.1,370.897,317.979,384.269,317.979z M384.269,285.642 c4.458,0,8.084,3.626,8.084,8.084c0,4.458-3.626,8.084-8.084,8.084c-4.458,0-8.084-3.626-8.084-8.084 C376.185,289.268,379.811,285.642,384.269,285.642z"/> <path style="fill:#2E2D31;" d="M447.326,248.376v-78.608c0-40.119-32.639-72.758-72.758-72.758H220.032 c-40.172,0-77.362,23.401-94.745,59.617L24.556,366.484h-0.303C10.879,366.484,0,377.363,0,390.737 c0,13.373,10.879,24.253,24.253,24.253h420.379c13.372,0,24.253-10.879,24.253-24.253c0-13.373-10.88-24.253-24.253-24.253H42.49 l23.283-48.505h233.344c22.289,0,40.421-18.132,40.421-40.421c0-22.289-18.132-40.421-40.421-40.421H137.432 c-4.465,0-8.084,3.62-8.084,8.084c0,4.465,3.62,8.084,8.084,8.084h161.684c13.372,0,24.253,10.879,24.253,24.253 s-10.88,24.253-24.253,24.253H73.534l0.004-0.01l66.324-138.176c14.709-30.645,46.177-50.445,80.17-50.445h154.537 c31.203,0,56.589,25.385,56.589,56.589v161.684c0,4.465,3.618,8.084,8.084,8.084c4.466,0,8.084-3.62,8.084-8.084v-66.781 c27.386,3.935,48.505,27.544,48.505,56.003c0,4.465,3.618,8.084,8.084,8.084s8.084-3.62,8.084-8.084 C512,283.288,483.654,252.412,447.326,248.376z M452.716,390.737c0,4.458-3.626,8.084-8.084,8.084H24.253 c-4.458,0-8.084-3.626-8.084-8.084s3.626-8.084,8.084-8.084h5.345c0.013,0,0.058,0,0.068,0h414.966 C449.09,382.653,452.716,386.279,452.716,390.737z"/> </g> </g>
</svg>